<svg id="Layer_1" data-name="Layer 1" xmlns="http://www.w3.org/2000/svg" viewBox="0 0 843.31 871.67"><defs><style>.cls-1{fill:#ba45ff;stroke:#ba45ff;stroke-linecap:round;stroke-linejoin:round;stroke-width:19px;}.cls-2{fill:#fff;}</style></defs><path class="cls-1" d="M349.46,403.91C421.22,259,494.72,103.82,528.43,47a12,12,0,0,1,22.16,4L652.68,600.45,537.75,60.64c-11.1.77-95.24,178.37-179.91,351.85" transform="translate(-107.07 -31.59)"/><polygon class="cls-2" points="757.6 342.54 803.86 267.3 772.33 259.21 632.35 306.49 527.97 364.37 407.82 450.24 315.54 523.83 407.82 633.73 504.27 566.18 645.24 450.16 757.6 342.54"/><path class="cls-1" d="M121.64,884.08c26.51-16.72,50-54.54,76.66-71,3.3-2,7.81-2.71,11.82-2.94,65.1-3.68,125.9-23.22,183.09-53.07,95.11-49.65,182.13-111.67,265.25-179.24,80.69-65.6,157.21-135.61,222.14-217.22,21.62-27.18,40.27-56.72,60.28-85.18-9.32-3.17-15.51-3.7-21.23-2.32-38,9.19-109.31,24.61-145.89,37.91-135.64,49.32-254,128.1-363.79,220.43-58.21,49-112.63,101.78-155.93,164.85-12,17.52-22,36.45-32.92,54.73l2.51,1.32c16.42-21.68,31.85-44.21,49.45-64.9,66.06-77.65,144.43-141.54,227.71-199.52C608.06,413.26,721.07,349.36,846.26,309.2c11.82-3.79,56.08-15.75,72.07-20.16-4.4,5.9-5.7,8.06-7.39,9.85-39.69,42-78.8,84.5-119.54,125.42-10.78,10.82-25.95,18-40.22,24.4-15,6.68-31.31,10.35-47,15.34.24,1,.49,2,.73,2.95l49.75-8.65C664,538.93,578.47,619.2,479.62,683.1c-71.05,45.93-144.38,88-229.55,100.44-42.14,6.16-44.87,6.18-76,34.54-11.78,10.74-14.69,16.24-27.31,26.07-2.9,2.26-20.9,31.39-23.58,33.93.2,1.57-1.56,6-1.56,6,14.42,1.57,74.22-174.44,166.2-356.73,20.22-40.06,41-81.87,61.62-123.44" transform="translate(-107.07 -31.59)"/><path class="cls-1" d="M359.16,409.79c-96.87,198.57-205.77,417.5-242.59,473.33" transform="translate(-107.07 -31.59)"/><path class="cls-1" d="M788.4,374.14C610.76,489.48,437.65,611.18,279,752.36,431.41,603,603,479.4,788.4,374.14Z" transform="translate(-107.07 -31.59)"/><path class="cls-1" d="M658.69,578.27s21.83,108.4,26.8,109.84c12.23,1.87,24,5.13,34.11,11.16,11.46,6.87,7.24,20.16-10.53,37.44-5,4.84-10.05,9.09-17,15.35,6.54,4.66,12.42,8.39,17.86,12.84,10.75,8.78,21.62,17.4,31.71,27.22,5.11,5,6.8,12.69-2.16,29.16-3.62,6.64-5.14,18.13-3.56,22.73,5,14.53,11.74,27.06,18.17,39.9,1.92,3.82,5,6.13,7.09,9.86-14.61-9.1-26-22.81-31.71-44.26-2.41-9-3.21-18.93,4.08-34.55,1.75-3.76.59-9.46-.82-12.23-8.83-17.34-25.44-21.71-40.62-28.45a128,128,0,0,1-18.3-9.43c-1.7-1.12-3-5.4-1.89-8.24,1.58-3.92,5.62-8.83,8.72-11.56,6.32-5.57,12.77-9.42,19.08-15.07,3.47-3.11,8.38-8.83,9.63-12.7,1.09-3.38-1.14-7.66-3.48-8.37a358.8,358.8,0,0,0-36.83-9.1l-23.6-108.57" transform="translate(-107.07 -31.59)"/></svg>