<svg id="Layer_1" data-name="Layer 1" xmlns="http://www.w3.org/2000/svg" viewBox="0 0 472.93 552.75"><defs><style>.cls-1{fill:#ba45ff;}</style></defs><g id="iOrN3N"><path class="cls-1" d="M344.7,659.26c3.87-14.12,7-28.5,11.75-42.32,17.09-49.75,43.44-94.75,73-137.89C485.2,397.68,549.14,323.72,629.94,266.1c21.79-15.53,46.54-26.93,70.06-40,3.54-2,7.73-2.76,14.5-2.37-8,22.54-15,45.54-24.28,67.52-28,66-65.83,126.47-107.23,184.77-42.65,60-88.89,117.15-142.78,167.53-32.41,30.3-69.09,54.42-111.55,68.84-2.61.88-5.48,2.16-7.29,4.12-14.65,15.8-29.07,31.81-43.56,47.76l1.35,3.5c17.75-3.43,36.24-4.74,53.09-10.7,47.11-16.66,93.4-35.64,140.33-52.86,16.54-6.08,33.74-11.24,51.08-14.05,19.78-3.2,25.66,5.69,18.26,24.27-2.07,5.21-4.75,10.18-8.07,17.21,11.9-1.46,22.21-3,32.57-4,20.49-1.85,41-3.86,61.51-4.84,10.4-.5,18.9,2.3,21.62,15.45,1.1,5.31,8.79,11.78,14.56,13.12,18.21,4.23,36.9,6.48,55.47,9.07,5.53.77,11.26.12,16.89.76-25.48,3.91-50.79,3.71-75.69-3.47-10.45-3-19.69-7.39-23.76-19.17-1-2.84-7.14-5-11.17-5.5-25.26-3.41-49.25,4-73.47,9.34-10,2.23-20.1,4.42-30.26,5.86-3,.42-8.22-.89-9.17-2.93-1.32-2.82-.47-7.52,1.06-10.63,3.11-6.33,7.82-11.89,10.84-18.25,1.66-3.5,2.93-9.1,1.24-11.7-1.48-2.26-7.78-3.08-11.24-2.09q-26.55,7.62-52.69,16.61c-44.24,15.3-88,32.08-132.67,46-20.71,6.45-43.07,7.56-64.68,11.1-.42-1-.85-2-1.28-3,1.32-2.18,2.47-4.47,4-6.5,6.56-8.84,13.88-17.18,19.71-26.46,15.4-24.51,36.24-41.17,63-53,54.14-23.92,95-65.26,133.62-108.76,53.75-60.52,95.62-129.42,140.86-199.48L593.35,394l-1-1.82c9.51-6.2,19.65-11.63,28.35-18.82,8.28-6.84,17-14.41,22.16-23.56,19.47-34.6,37.56-70,56.14-105.08.79-1.49,1.25-3.17,3.08-7.89-9.78,5.86-17.28,10-24.41,14.69-75.56,49.63-138.68,112.75-196,182C437.1,487.24,396.93,544,367.44,607.58c-7.86,16.94-13.93,34.71-20.83,52.1Z" transform="translate(-263.53 -223.62)"/><path class="cls-1" d="M631.62,317.15c-96.49,109.09-188.8,221.55-268,344.28C437.19,534.46,528.12,421,631.62,317.15Z" transform="translate(-263.53 -223.62)"/></g></svg>