<svg id="Layer_3" data-name="Layer 3" xmlns="http://www.w3.org/2000/svg" viewBox="0 0 536.45 693.94"><defs><style>.cls-1{fill:#ac61ba;}.cls-2{fill:#7d3c8a;}</style></defs><path class="cls-1" d="M568.43,325.77c12.61,1.67,24,3.35,35.43,4.58,4.38.48,5.77,1.19,2.74,5.35-17.63,24.22-36.43,47.41-58.29,68-17.51,16.51-37,30.55-55.57,45.79-11.93,9.8-23.54,19.94-34,31.35-.78.86-25.67,16.75-27.13,16.7-3.46-.14,13.44-26.7,15-30,5.6-11.8,10.94-23.77,17.24-35.19,7.13-12.95,12-26.91,19-39.88,3.57-6.65,7.61-13.06,12.46-21.29-5.68,3.07-8,6.8-10,10.19-16.4,27.76-31.62,56.19-49,83.39-7.53,11.78-7,12.15-8.72,35.19-2.47-11.69-2.08-23.57-.88-35.2q4-38.26,9.64-76.35c4.18-28,8.87-55.86,15.86-83.3,1.36-5.36,3.09-10.49,7.12-14.55,3.55-3.58,6.9-4.45,11-.58,4.5,4.2,9.83,10.91,15.05,9.49,4.38-1.2,4.25-10.33,6.91-15.49,6.74-13.1,15.16-25.18,24.18-36.84,24.67-31.94,55.87-55.44,93-70.9,27.19-11.33,55.64-19.11,83.73-27.87s55.69-19.28,84.79-24.55" transform="translate(-241.5 -123.86)"/><path class="cls-2" d="M392.71,516.15h73.45c17.79,0,18-.08,22.54,17.32,5.58,21.55,15.78,41.24,24.31,61.59,24.62,58.71,49.85,117.17,74.21,176C595,789.8,611,796.81,627.65,803.67c5.19,2.14,11.44,1.6,16.45,6.12-30.79,5.83-61,9.72-91.57,6.66-11.41-1.13-19-8.77-25.86-17-14.08-16.82-21.79-37.25-29.1-57.29-6-16.39-14.76-21-31.58-20.31-35.07,1.38-70.23.45-105.36.24-5.5,0-8.69,1.06-11.47,6.72-12.64,25.72-22,52.78-32.9,79.19-2.51,6.08-5.45,8.73-12.19,8.64-18.57-.23-37.17-.47-55.73,1-2,.15-4.15.71-6.84-1.82,8.86-6.37,19.33-8.23,28.75-12.23,7.29-3.1,14.94-5.36,22.46-7.92a8.25,8.25,0,0,0,4.86-4.78c20.84-43.64,38.48-88.65,56.94-133.31q17.91-43.3,35.87-86.58c4.85-11.68,8.93-23.72,15.84-34.45,2.48-3.84,1.46-6.22-2.18-8.66C399.93,525.12,395.77,522.18,392.71,516.15Zm26.57,38.24c-2.78,5.13-5.13,8-5.93,11.2-6.12,24.68-17.67,47.32-26.58,70.94-7.37,19.54-15.48,38.8-23.48,58.1-2.81,6.79-1.45,8.9,6.29,8.8,32.13-.44,64.26-.25,96.4-.31,2.94,0,5.9,0,8.82-.32,4-.38,6.15-.85,3.74-6.34-11.46-26.15-22.26-52.58-33.22-78.94C436.86,597.17,428.51,576.79,419.28,554.39Z" transform="translate(-241.5 -123.86)"/></svg>