<svg id="Layer_1" data-name="Layer 1" xmlns="http://www.w3.org/2000/svg" viewBox="0 0 706.8 822.89"><defs><style>.cls-1{fill:#ba45ff;stroke:#ba45ff;stroke-linecap:round;stroke-linejoin:round;stroke-width:19px;}</style></defs><g id="iOrN3N"><path class="cls-1" d="M259.78,713.26c5.63-20.53,10.19-41.44,17.09-61.54C301.73,579.37,340,513.92,383,451.17,464.12,332.84,557.1,225.28,674.61,141.48c31.69-22.6,67.69-39.17,101.89-58.2,5.15-2.86,11.25-4,21.09-3.44-11.67,32.77-21.75,66.23-35.31,98.2C721.54,274,666.54,362,606.33,446.75c-62,87.34-129.28,170.38-207.65,243.65-47.13,44.06-100.48,79.15-162.23,100.11-3.8,1.29-8,3.14-10.6,6-21.3,23-42.27,46.27-63.34,69.46l2,5.1c25.8-5,52.7-6.89,77.2-15.56,68.52-24.23,135.84-51.84,204.09-76.88,24.06-8.84,49.07-16.35,74.29-20.43,28.76-4.66,37.32,8.27,26.56,35.29-3,7.58-6.91,14.8-11.74,25,17.3-2.13,32.3-4.37,47.37-5.74,29.79-2.7,59.59-5.62,89.45-7,15.13-.72,27.48,3.34,31.44,22.47,1.6,7.72,12.79,17.13,21.18,19.08,26.48,6.15,53.66,9.43,80.67,13.19,8,1.12,16.37.17,24.56,1.1-37,5.7-73.87,5.4-110.08-5-15.19-4.38-28.63-10.74-34.55-27.88-1.42-4.13-10.38-7.21-16.24-8-36.74-4.95-71.63,5.75-106.85,13.58-14.59,3.25-29.23,6.42-44,8.52-4.39.62-11.95-1.3-13.34-4.26-1.92-4.1-.68-10.94,1.54-15.45,4.53-9.21,11.37-17.29,15.77-26.55,2.41-5.09,4.26-13.23,1.79-17-2.15-3.3-11.3-4.48-16.33-3q-38.61,11.07-76.64,24.15c-64.33,22.26-128,46.65-192.94,66.87-30.12,9.36-62.63,11-94.06,16.13l-1.86-4.39c1.91-3.17,3.58-6.51,5.77-9.46,9.53-12.85,20.18-25,28.65-38.47,22.4-35.65,52.71-59.88,91.67-77.09C346.56,719.4,406,659.27,462.15,596,540.32,508,601.22,407.79,667,305.9l-45.62,21.64-1.49-2.65c13.83-9,28.58-16.91,41.23-27.36,12-9.95,24.74-21,32.23-34.27C721.67,212.93,748,161.49,775,110.44c1.15-2.18,1.82-4.61,4.48-11.47-14.22,8.52-25.13,14.54-35.51,21.36C634.09,192.5,542.3,284.3,458.9,385c-64.74,78.14-123.17,160.67-166,253.15-11.43,24.64-20.26,50.48-30.29,75.77Z" transform="translate(-132.24 -70.2)"/><path class="cls-1" d="M677.05,215.72C536.73,374.36,402.48,537.93,287.35,716.41,394.29,531.76,526.53,366.74,677.05,215.72Z" transform="translate(-132.24 -70.2)"/></g></svg>